<svg width="418" height="61" viewBox="0 0 418 61" fill="none" xmlns="http://www.w3.org/2000/svg">
<g filter="url(#filter0_d_305_9)">
<path d="M4 3L183 3" stroke="#C2BBD4" stroke-width="2" shape-rendering="crispEdges"/>
</g>
<g filter="url(#filter1_d_305_9)">
<path d="M75.6006 19.6596C75.6006 18.2278 73.7858 17.6099 72.9122 18.7443L61.1638 33.9985C60.5634 34.7782 59.3876 34.7782 58.7871 33.9986L46.9838 18.675C46.1101 17.5407 44.2955 18.1586 44.2955 19.5904V39.6395C44.2955 40.468 43.6239 41.1395 42.7955 41.1395H40.5C39.6716 41.1395 39 40.468 39 39.6395V4.37759C39 2.94875 40.8085 2.32906 41.6848 3.45764L58.7853 25.4808C59.3875 26.2564 60.5602 26.2538 61.1589 25.4755L78.0696 3.49499C78.9429 2.35985 80.7585 2.97743 80.7585 4.40965V39.6395C80.7585 40.468 80.0869 41.1395 79.2585 41.1395H77.1006C76.2721 41.1395 75.6006 40.468 75.6006 39.6395V19.6596Z" fill="#C2BBD4"/>
</g>
<g filter="url(#filter2_d_305_9)">
<path d="M144.21 32.9337C142.339 36.1248 139.85 38.6384 136.741 40.4712C133.585 42.3349 130.16 43.2633 126.467 43.2633C122.732 43.2633 119.314 42.3349 116.206 40.4712C113.049 38.6384 110.56 36.1248 108.737 32.9337C106.911 29.7805 106 26.3385 106 22.6042C106 18.9111 106.911 15.4656 108.737 12.2746C110.597 9.12136 113.104 6.60774 116.261 4.73713C119.376 2.91467 122.78 2 126.467 2C130.125 2 133.55 2.91467 136.741 4.73713C139.894 6.60774 142.384 9.12136 144.21 12.2746C146.032 15.4656 146.947 18.9111 146.947 22.6042C146.947 26.3007 146.032 29.7427 144.21 32.9337ZM139.726 14.8879C138.357 12.5221 136.494 10.6344 134.128 9.22108C131.762 7.85595 129.207 7.17167 126.467 7.17167C123.688 7.17167 121.137 7.85595 118.819 9.22108C116.453 10.6344 114.586 12.5221 113.221 14.8879C111.846 17.2537 111.158 19.8258 111.158 22.6042C111.158 25.4307 111.846 28.02 113.221 30.3754C114.586 32.7412 116.453 34.6118 118.819 35.9872C121.185 37.4005 123.733 38.1054 126.467 38.1054C129.29 38.1054 131.862 37.4005 134.183 35.9872C136.549 34.6118 138.419 32.7412 139.795 30.3754C141.122 28.02 141.789 25.4307 141.789 22.6042C141.789 19.8258 141.101 17.2537 139.726 14.8879Z" fill="#C2BBD4"/>
</g>
<g filter="url(#filter3_d_305_9)">
<path d="M198.956 40.1718C199.639 41.1672 198.926 42.5206 197.719 42.5206H194.797C194.31 42.5206 193.854 42.2843 193.573 41.8869L180.331 23.1686C179.628 22.1751 180.339 20.8023 181.556 20.8023H184.503C185.995 20.8023 187.326 20.6992 188.492 20.486C189.609 20.3209 190.479 20.1146 191.105 19.867C192.388 19.2893 193.405 18.4366 194.158 17.3087C194.901 16.2358 195.273 15.1183 195.273 13.9526C195.273 12.7904 194.918 11.69 194.213 10.6515C193.505 9.66122 192.487 8.83252 191.16 8.16199C189.84 7.5396 188.302 7.22669 186.552 7.22669H178.663C177.833 7.22669 177.16 7.90147 177.163 8.73195L177.276 41.0153C177.279 41.8458 176.607 42.5206 175.776 42.5206H173.5C172.672 42.5206 172 41.849 172 41.0206V3.5C172 2.67157 172.672 2 173.5 2H186.552C188.505 2 190.335 2.31291 192.04 2.9353C193.735 3.56113 195.224 4.45517 196.51 5.61742C197.755 6.7384 198.732 8.02101 199.44 9.46866C200.107 10.9266 200.444 12.4224 200.444 13.9526C200.444 16.4009 199.695 18.6016 198.202 20.5547C196.954 22.2156 195.273 23.5635 193.154 24.5985C192.643 24.7815 192.149 24.9355 191.675 25.0605C190.507 25.368 189.792 26.8185 190.475 27.8139L198.956 40.1718Z" fill="#C2BBD4"/>
</g>
<g filter="url(#filter4_d_305_9)">
<path d="M255.806 31.8059C255.806 33.4289 255.41 34.966 254.623 36.4136C253.798 37.9094 252.635 39.192 251.143 40.2649C249.768 41.3102 248.207 42.1011 246.467 42.6306C244.685 43.1705 242.842 43.4421 240.937 43.4421C237.114 43.4421 233.936 42.5722 231.405 40.8288C229.237 39.3974 227.703 37.6817 226.804 35.6796C226.513 35.0326 226.814 34.2938 227.431 33.9455L228.99 33.0667C229.99 32.5031 231.356 33.2606 231.989 34.2184C232.16 34.4772 232.36 34.7322 232.588 34.9832C233.458 35.9735 234.641 36.7644 236.137 37.3489C237.629 37.9747 239.232 38.2842 240.937 38.2842C242.633 38.2842 244.228 37.9747 245.724 37.3489C247.216 36.7644 248.399 35.9735 249.273 34.9832C250.142 34.0307 250.579 32.9716 250.579 31.8059C250.579 30.8534 250.266 29.9181 249.644 29C249.018 28.13 248.131 27.3873 246.976 26.7718C245.81 26.1494 243.674 25.6508 240.566 25.2725C237.072 24.9424 234.493 24.3441 232.836 23.4707C230.725 22.4735 229.067 21.0843 227.857 19.3031C226.619 17.5528 226 15.665 226 13.6363C226 12.0132 226.413 10.4555 227.238 8.95975C228.025 7.51209 229.15 6.24668 230.608 5.16352C233.551 3.05565 236.993 2 240.937 2C242.842 2 244.668 2.26821 246.412 2.79776C248.152 3.34106 249.73 4.1285 251.143 5.16352C252.846 6.46213 254.117 7.98653 254.954 9.73673C255.268 10.3933 254.972 11.1597 254.338 11.5171L252.816 12.3754C251.816 12.9391 250.456 12.1828 249.84 11.2142C249.677 10.9589 249.488 10.7071 249.273 10.459C248.399 9.46179 247.216 8.6709 245.724 8.09322C244.19 7.51553 242.595 7.22669 240.937 7.22669C239.194 7.22669 237.574 7.51553 236.082 8.09322C234.586 8.6709 233.403 9.43772 232.533 10.3902C231.66 11.3908 231.227 12.474 231.227 13.6363C231.227 14.6266 231.598 15.5997 232.341 16.5522C233.09 17.5528 234.026 18.299 235.147 18.7942C235.852 19.1346 236.869 19.4269 238.2 19.6745C239.521 19.922 240.532 20.0871 241.24 20.1696C243.193 20.4172 244.792 20.6888 246.04 20.9811C247.278 21.2665 248.42 21.6792 249.465 22.219C251.37 23.1371 252.904 24.4679 254.059 26.2078C255.221 27.989 255.806 29.8527 255.806 31.8059Z" fill="#C2BBD4"/>
</g>
<g filter="url(#filter5_d_305_9)">
<path d="M308.353 36.0065C308.114 35.4601 307.574 35.1069 306.978 35.1069H290.366C289.78 35.1069 289.248 35.4481 289.003 35.9805L286.203 42.0734C285.958 42.6058 285.426 42.947 284.84 42.947H282.428C281.332 42.947 280.606 41.8103 281.067 40.8161L297.663 5.01479C298.206 3.84304 299.878 3.85983 300.397 5.04225L316.127 40.8436C316.563 41.8349 315.837 42.947 314.754 42.947H312.366C311.77 42.947 311.23 42.5938 310.992 42.0474L308.353 36.0065ZM303.407 29.9353C304.493 29.9353 305.219 28.8166 304.777 27.8245L300.214 17.5901C299.689 16.4131 298.022 16.402 297.482 17.5718L292.754 27.8062C292.295 28.8002 293.021 29.9353 294.116 29.9353H303.407Z" fill="#C2BBD4"/>
</g>
<g filter="url(#filter6_d_305_9)">
<path d="M342.051 3.5C342.051 2.67157 342.723 2 343.551 2H345.833C346.661 2 347.333 2.67157 347.333 3.5V35.8489C347.333 36.6773 348.005 37.3489 348.833 37.3489H366.437C367.266 37.3489 367.937 38.0205 367.937 38.8489V41.0206C367.937 41.849 367.266 42.5206 366.437 42.5206H343.551C342.723 42.5206 342.051 41.849 342.051 41.0206V3.5Z" fill="#C2BBD4"/>
</g>
<g filter="url(#filter7_d_305_9)">
<mask id="mask0_305_9" style="mask-type:luminance" maskUnits="userSpaceOnUse" x="281" y="41" width="61" height="18">
<path d="M341.106 41H281V58.1732H341.106V41Z" fill="white"/>
</mask>
<g mask="url(#mask0_305_9)">
<path d="M282.729 52.8193V45.9194H284.071L286.524 49.4843L288.978 45.9194H290.3V52.8193H288.729V48.6602L287.061 51.1135H285.969L284.301 48.6602V52.8193H282.729Z" fill="#C2BBD4"/>
<path d="M297.618 52.9535C296.899 52.9535 296.262 52.8001 295.701 52.4935C295.15 52.1868 294.714 51.7652 294.398 51.2285C294.091 50.6918 293.938 50.0737 293.938 49.3693C293.938 48.6698 294.091 48.0468 294.398 47.5102C294.714 46.9639 295.15 46.5327 295.701 46.226C296.262 45.9194 296.899 45.766 297.618 45.766C298.346 45.766 298.983 45.9194 299.534 46.226C300.081 46.5327 300.517 46.9639 300.838 47.5102C301.154 48.0468 301.317 48.6698 301.317 49.3693C301.317 50.0737 301.154 50.6918 300.838 51.2285C300.517 51.7652 300.081 52.1868 299.534 52.4935C298.983 52.8001 298.346 52.9535 297.618 52.9535ZM295.548 49.3693C295.548 49.7814 295.629 50.1456 295.797 50.4618C295.974 50.7829 296.218 51.032 296.525 51.2093C296.841 51.377 297.206 51.4585 297.618 51.4585C298.039 51.4585 298.403 51.377 298.71 51.2093C299.026 51.032 299.271 50.7829 299.438 50.4618C299.616 50.1456 299.707 49.7814 299.707 49.3693C299.707 48.9477 299.616 48.5835 299.438 48.2768C299.271 47.9606 299.026 47.7114 298.71 47.5293C298.403 47.3521 298.039 47.261 297.618 47.261C297.206 47.261 296.841 47.3521 296.525 47.5293C296.218 47.7114 295.974 47.9606 295.797 48.2768C295.629 48.5835 295.548 48.9477 295.548 49.3693Z" fill="#C2BBD4"/>
<path d="M304.552 52.8193V51.6885L307.695 47.3377H304.648V45.9194H309.746V47.0502L306.584 51.401H309.823V52.8193H304.552Z" fill="#C2BBD4"/>
<path d="M313.448 52.8193V45.9194H314.789L317.837 50.1168V45.9194H319.389V52.8193H318.067L315.019 48.5835V52.8193H313.448Z" fill="#C2BBD4"/>
<path d="M323.441 52.8193V45.9194H327.983V47.2418H325.012V48.6602H327.715V49.9827H325.012V51.4777H328.098V52.8193H323.441Z" fill="#C2BBD4"/>
<path d="M331.816 52.8193V45.9194H334.901C335.615 45.9194 336.176 46.0871 336.588 46.4177C336.995 46.7531 337.201 47.1987 337.201 47.7593C337.201 48.0948 337.129 48.3918 336.991 48.6602C336.847 48.9189 336.646 49.1202 336.377 49.2735C336.708 49.4173 336.962 49.6281 337.144 49.906C337.321 50.1887 337.412 50.5145 337.412 50.8835C337.412 51.2668 337.307 51.607 337.106 51.8993C336.914 52.1964 336.636 52.4264 336.281 52.5893C335.936 52.7427 335.534 52.8193 335.074 52.8193H331.816ZM333.368 51.5735H334.825C335.141 51.5735 335.385 51.5064 335.553 51.3627C335.716 51.2093 335.802 51.0081 335.802 50.7493C335.802 50.481 335.716 50.2797 335.553 50.136C335.385 49.997 335.141 49.9252 334.825 49.9252H333.368V51.5735ZM333.368 48.7177H334.671C334.978 48.7177 335.208 48.6554 335.361 48.526C335.524 48.3871 335.611 48.1906 335.611 47.9318C335.611 47.6923 335.524 47.5006 335.361 47.3568C335.208 47.2179 334.978 47.146 334.671 47.146H333.368V48.7177Z" fill="#C2BBD4"/>
</g>
</g>
<g filter="url(#filter8_d_305_9)">
<path d="M270 43L414 43" stroke="#C2BBD4" stroke-width="2" shape-rendering="crispEdges"/>
</g>
<defs>
<filter id="filter0_d_305_9" x="0" y="2" width="187" height="10" filterUnits="userSpaceOnUse" color-interpolation-filters="sRGB">
<feFlood flood-opacity="0" result="BackgroundImageFix"/>
<feColorMatrix in="SourceAlpha" type="matrix" values="0 0 0 0 0 0 0 0 0 0 0 0 0 0 0 0 0 0 127 0" result="hardAlpha"/>
<feOffset dy="4"/>
<feGaussianBlur stdDeviation="2"/>
<feComposite in2="hardAlpha" operator="out"/>
<feColorMatrix type="matrix" values="0 0 0 0 0 0 0 0 0 0 0 0 0 0 0 0 0 0 0.25 0"/>
<feBlend mode="normal" in2="BackgroundImageFix" result="effect1_dropShadow_305_9"/>
<feBlend mode="normal" in="SourceGraphic" in2="effect1_dropShadow_305_9" result="shape"/>
</filter>
<filter id="filter1_d_305_9" x="35" y="2.87463" width="49.7585" height="46.2649" filterUnits="userSpaceOnUse" color-interpolation-filters="sRGB">
<feFlood flood-opacity="0" result="BackgroundImageFix"/>
<feColorMatrix in="SourceAlpha" type="matrix" values="0 0 0 0 0 0 0 0 0 0 0 0 0 0 0 0 0 0 127 0" result="hardAlpha"/>
<feOffset dy="4"/>
<feGaussianBlur stdDeviation="2"/>
<feComposite in2="hardAlpha" operator="out"/>
<feColorMatrix type="matrix" values="0 0 0 0 0 0 0 0 0 0 0 0 0 0 0 0 0 0 0.25 0"/>
<feBlend mode="normal" in2="BackgroundImageFix" result="effect1_dropShadow_305_9"/>
<feBlend mode="normal" in="SourceGraphic" in2="effect1_dropShadow_305_9" result="shape"/>
</filter>
<filter id="filter2_d_305_9" x="102" y="2" width="48.947" height="49.2633" filterUnits="userSpaceOnUse" color-interpolation-filters="sRGB">
<feFlood flood-opacity="0" result="BackgroundImageFix"/>
<feColorMatrix in="SourceAlpha" type="matrix" values="0 0 0 0 0 0 0 0 0 0 0 0 0 0 0 0 0 0 127 0" result="hardAlpha"/>
<feOffset dy="4"/>
<feGaussianBlur stdDeviation="2"/>
<feComposite in2="hardAlpha" operator="out"/>
<feColorMatrix type="matrix" values="0 0 0 0 0 0 0 0 0 0 0 0 0 0 0 0 0 0 0.25 0"/>
<feBlend mode="normal" in2="BackgroundImageFix" result="effect1_dropShadow_305_9"/>
<feBlend mode="normal" in="SourceGraphic" in2="effect1_dropShadow_305_9" result="shape"/>
</filter>
<filter id="filter3_d_305_9" x="168" y="2" width="36.4441" height="48.5206" filterUnits="userSpaceOnUse" color-interpolation-filters="sRGB">
<feFlood flood-opacity="0" result="BackgroundImageFix"/>
<feColorMatrix in="SourceAlpha" type="matrix" values="0 0 0 0 0 0 0 0 0 0 0 0 0 0 0 0 0 0 127 0" result="hardAlpha"/>
<feOffset dy="4"/>
<feGaussianBlur stdDeviation="2"/>
<feComposite in2="hardAlpha" operator="out"/>
<feColorMatrix type="matrix" values="0 0 0 0 0 0 0 0 0 0 0 0 0 0 0 0 0 0 0.25 0"/>
<feBlend mode="normal" in2="BackgroundImageFix" result="effect1_dropShadow_305_9"/>
<feBlend mode="normal" in="SourceGraphic" in2="effect1_dropShadow_305_9" result="shape"/>
</filter>
<filter id="filter4_d_305_9" x="222" y="2" width="37.8059" height="49.4421" filterUnits="userSpaceOnUse" color-interpolation-filters="sRGB">
<feFlood flood-opacity="0" result="BackgroundImageFix"/>
<feColorMatrix in="SourceAlpha" type="matrix" values="0 0 0 0 0 0 0 0 0 0 0 0 0 0 0 0 0 0 127 0" result="hardAlpha"/>
<feOffset dy="4"/>
<feGaussianBlur stdDeviation="2"/>
<feComposite in2="hardAlpha" operator="out"/>
<feColorMatrix type="matrix" values="0 0 0 0 0 0 0 0 0 0 0 0 0 0 0 0 0 0 0.25 0"/>
<feBlend mode="normal" in2="BackgroundImageFix" result="effect1_dropShadow_305_9"/>
<feBlend mode="normal" in="SourceGraphic" in2="effect1_dropShadow_305_9" result="shape"/>
</filter>
<filter id="filter5_d_305_9" x="276.926" y="4.14563" width="43.3292" height="46.8013" filterUnits="userSpaceOnUse" color-interpolation-filters="sRGB">
<feFlood flood-opacity="0" result="BackgroundImageFix"/>
<feColorMatrix in="SourceAlpha" type="matrix" values="0 0 0 0 0 0 0 0 0 0 0 0 0 0 0 0 0 0 127 0" result="hardAlpha"/>
<feOffset dy="4"/>
<feGaussianBlur stdDeviation="2"/>
<feComposite in2="hardAlpha" operator="out"/>
<feColorMatrix type="matrix" values="0 0 0 0 0 0 0 0 0 0 0 0 0 0 0 0 0 0 0.25 0"/>
<feBlend mode="normal" in2="BackgroundImageFix" result="effect1_dropShadow_305_9"/>
<feBlend mode="normal" in="SourceGraphic" in2="effect1_dropShadow_305_9" result="shape"/>
</filter>
<filter id="filter6_d_305_9" x="338.051" y="2" width="33.8859" height="48.5206" filterUnits="userSpaceOnUse" color-interpolation-filters="sRGB">
<feFlood flood-opacity="0" result="BackgroundImageFix"/>
<feColorMatrix in="SourceAlpha" type="matrix" values="0 0 0 0 0 0 0 0 0 0 0 0 0 0 0 0 0 0 127 0" result="hardAlpha"/>
<feOffset dy="4"/>
<feGaussianBlur stdDeviation="2"/>
<feComposite in2="hardAlpha" operator="out"/>
<feColorMatrix type="matrix" values="0 0 0 0 0 0 0 0 0 0 0 0 0 0 0 0 0 0 0.25 0"/>
<feBlend mode="normal" in2="BackgroundImageFix" result="effect1_dropShadow_305_9"/>
<feBlend mode="normal" in="SourceGraphic" in2="effect1_dropShadow_305_9" result="shape"/>
</filter>
<filter id="filter7_d_305_9" x="278.729" y="45.766" width="62.6827" height="15.1875" filterUnits="userSpaceOnUse" color-interpolation-filters="sRGB">
<feFlood flood-opacity="0" result="BackgroundImageFix"/>
<feColorMatrix in="SourceAlpha" type="matrix" values="0 0 0 0 0 0 0 0 0 0 0 0 0 0 0 0 0 0 127 0" result="hardAlpha"/>
<feOffset dy="4"/>
<feGaussianBlur stdDeviation="2"/>
<feComposite in2="hardAlpha" operator="out"/>
<feColorMatrix type="matrix" values="0 0 0 0 0 0 0 0 0 0 0 0 0 0 0 0 0 0 0.25 0"/>
<feBlend mode="normal" in2="BackgroundImageFix" result="effect1_dropShadow_305_9"/>
<feBlend mode="normal" in="SourceGraphic" in2="effect1_dropShadow_305_9" result="shape"/>
</filter>
<filter id="filter8_d_305_9" x="266" y="42" width="152" height="10" filterUnits="userSpaceOnUse" color-interpolation-filters="sRGB">
<feFlood flood-opacity="0" result="BackgroundImageFix"/>
<feColorMatrix in="SourceAlpha" type="matrix" values="0 0 0 0 0 0 0 0 0 0 0 0 0 0 0 0 0 0 127 0" result="hardAlpha"/>
<feOffset dy="4"/>
<feGaussianBlur stdDeviation="2"/>
<feComposite in2="hardAlpha" operator="out"/>
<feColorMatrix type="matrix" values="0 0 0 0 0 0 0 0 0 0 0 0 0 0 0 0 0 0 0.25 0"/>
<feBlend mode="normal" in2="BackgroundImageFix" result="effect1_dropShadow_305_9"/>
<feBlend mode="normal" in="SourceGraphic" in2="effect1_dropShadow_305_9" result="shape"/>
</filter>
</defs>
</svg>
